<svg width="281" height="239" viewBox="0 0 281 239" fill="none" xmlns="http://www.w3.org/2000/svg">
<path fill-rule="evenodd" clip-rule="evenodd" d="M266.047 86.6636C253.959 59.5116 238.277 36.2851 216.715 20.9098C195.479 5.20743 168.689 -2.31664 143.859 0.627562C119.056 3.56856 96.5357 17.2815 72.3892 31.9844L72.3104 32.0324C71.7961 32.3498 71.281 32.6676 70.7654 32.9857C47.3677 47.4203 22.7029 62.6366 10.2361 85.6822C-2.83217 109.236 -3.15888 140.314 7.94915 166.157C19.0572 191.673 41.5999 211.301 65.7762 223.733C89.9525 235.836 115.762 240.743 139.939 238.454C164.115 236.164 186.331 226.677 211.814 214.9C237.624 203.123 266.047 188.729 276.502 166.484C286.63 143.912 278.136 113.489 266.047 86.6636ZM142.5 167C168.734 167 190 145.734 190 119.5C190 93.2665 168.734 72 142.5 72C116.266 72 95 93.2665 95 119.5C95 145.734 116.266 167 142.5 167Z" fill="url(#paint0_linear_13_43)"/>
<defs>
<linearGradient id="paint0_linear_13_43" x1="140.5" y1="0" x2="140.5" y2="239" gradientUnits="userSpaceOnUse">
<stop offset="0.5" stop-color="#0AE448"/>
<stop offset="0.82" stop-color="#0AB0C2"/>
</linearGradient>
</defs>
</svg>
