<svg width="126" height="124" viewBox="0 0 126 124" fill="none" xmlns="http://www.w3.org/2000/svg">
<path d="M56.5 61H68.5L80 124H45L56.5 61Z" fill="#0E100F"/>
<path d="M58.75 66.3516L64.75 55.9593L125.06 77.5L107.56 107.811L58.75 66.3516Z" fill="#0E100F"/>
<path d="M64.9903 67.6242L58.9903 57.2319L107.8 15.7726L125.3 46.0835L64.9903 67.6242Z" fill="#0E100F"/>
<path d="M68.5 63H56.5L45 1.72912e-06L80 0L68.5 63Z" fill="#0E100F"/>
<path d="M66.3096 56.4593L60.3096 66.8516L0 45.3109L17.5 15L66.3096 56.4593Z" fill="#0E100F"/>
<path d="M60.5502 55.7319L66.5502 66.1242L17.7406 107.583L0.240603 77.2726L60.5502 55.7319Z" fill="#0E100F"/>
</svg>
